#N canvas 90 565 820 346 10;
#X obj 208 89 udpsend;
#X msg 204 57 disconnect;
#X obj 289 66 packOSC;
#X floatatom 409 91 5 0 0 0 - - -;
#X msg 179 40 connect 127.0.0.1 4242;
#X msg 143 -64 send /test 1 2 3;
#X connect 1 0 0 0;
#X connect 2 0 0 0;
#X connect 2 1 3 0;
#X connect 4 0 0 0;
#X connect 5 0 2 0;
