#N canvas 687 92 956 643 10;
#X obj 137 199 udpsend;
#X msg 133 167 disconnect;
#X obj 218 176 packOSC;
#X floatatom 338 201 5 0 0 0 - - -;
#X msg 90 75 connect 127.0.0.1 4242;
#X msg 273 -154 stop;
#X msg 105 -157 bang;
#X msg 189 -27 send /test \$1 \$2;
#X obj 214 -57 pack i i;
#X obj 260 -95 random 50;
#X obj 320 2 print;
#X obj 182 -90 random 500;
#X floatatom 453 66 5 0 0 0 - - -;
#X obj 541 -86 bng 15 250 50 0 empty empty empty 17 7 0 10 -262144
-1 -1;
#X obj 538 -17 count;
#X floatatom 594 -29 5 0 0 0 - - -;
#X obj 544 41 == 0;
#X obj 444 104 pack i i;
#X obj 654 -38 f 0;
#X obj 654 -10 + 1;
#X msg 614 117 send /beat \$1;
#X obj 133 -127 metro 500;
#X connect 1 0 0 0;
#X connect 2 0 0 0;
#X connect 2 1 3 0;
#X connect 4 0 0 0;
#X connect 5 0 21 0;
#X connect 6 0 21 0;
#X connect 7 0 10 0;
#X connect 8 0 7 0;
#X connect 9 0 8 1;
#X connect 11 0 8 0;
#X connect 12 0 17 0;
#X connect 13 0 14 0;
#X connect 13 0 18 0;
#X connect 14 0 12 0;
#X connect 14 0 16 0;
#X connect 15 0 14 1;
#X connect 18 0 19 0;
#X connect 19 0 20 0;
#X connect 20 0 2 0;
#X connect 21 0 9 0;
#X connect 21 0 11 0;
#X connect 21 0 13 0;
