#N canvas 90 565 820 346 10;
#X obj 208 89 udpsend;
#X msg 204 57 disconnect;
#X obj 289 66 packOSC;
#X floatatom 409 91 5 0 0 0 - - -;
#X msg 179 40 connect 127.0.0.1 4242;
#X obj 133 -132 metro 1000;
#X msg 273 -154 stop;
#X msg 105 -157 bang;
#X msg 189 -27 send /test \$1 \$2;
#X obj 214 -57 pack i i;
#X obj 184 -95 random 50;
#X obj 260 -95 random 50;
#X obj 320 2 print;
#X connect 1 0 0 0;
#X connect 2 0 0 0;
#X connect 2 1 3 0;
#X connect 4 0 0 0;
#X connect 5 0 10 0;
#X connect 5 0 11 0;
#X connect 6 0 5 0;
#X connect 7 0 5 0;
#X connect 8 0 2 0;
#X connect 8 0 12 0;
#X connect 9 0 8 0;
#X connect 10 0 9 0;
#X connect 11 0 9 1;
